<?xml version="1.0" standalone="no"?>
<!DOCTYPE svg PUBLIC "-//W3C//DTD SVG 1.1//EN" "http://www.w3.org/Graphics/SVG/1.1/DTD/svg11.dtd">
<svg xmlns="http://www.w3.org/2000/svg">
<metadata>Copyright (C) 2025 by original authors @ fontello.com</metadata>
<defs>
<font id="ptcg-icons" horiz-adv-x="1000" >
<font-face font-family="ptcg-icons" font-weight="400" font-stretch="normal" units-per-em="1000" ascent="850" descent="-150" />
<missing-glyph horiz-adv-x="1000" />
<glyph glyph-name="colorless" unicode="&#xe800;" d="M716 173h1q0-1 1-1-11 4-22 7-9 4-20 7-2 1-4 1-2 1-3 2-5 1-9 2-5 2-9 3-3 1-4 2-2 0-4 1-42 12-86 20-43 9-87 14-12 0-22-6-10-6-16-16-18-41-33-83-13-41-24-84-1-5-3-11-1-6-2-11v0 0q-1-3-1-6l-2-6-4-21q-3-11-5-22v0 0 0 0q-1 11-3 22l-4 21-2 6q0 3-1 6v0 0q-1 5-3 11l-2 11q-11 43-25 84-14 42-32 83-6 10-16 16-10 6-22 6-44-5-87-14-44-8-86-20-2-1-4-1-2-1-5-2-3-1-8-3-4-1-9-2-1-1-3-2-2 0-4-1-11-3-20-7-11-3-22-7 1 0 1 1h1-1v0l8 8q5 4 9 7 7 9 23 22t29 26q27 27 52 55 25 29 48 59 5 8 7 15 3 7 3 15t-3 16q-2 7-7 15-23 30-48 58-25 29-52 56-13 12-29 25t-23 23q-4 4-9 8-4 3-8 6v0h1q-1 0-1 1l-1 1q11-4 21-8 10-2 21-6 2-1 4-1 1-1 3-1 5-2 9-3 5-2 8-3 2-1 4-1 2-1 5-2 42-12 86-21 43-8 87-13 12 0 22 6 10 5 16 16 18 40 31 82 15 42 26 85 1 5 2 11 2 6 3 12v0 0q1 3 1 6 1 1 2 4l4 22q2 11 3 22v0 0 0 0q2-11 5-22l4-22q1-3 2-4 0-3 1-6v0 0l2-12q2-5 3-11 10-43 24-85t33-82q6-11 15-16 11-6 23-6 44 5 87 13 44 9 86 21l4 2q1 0 3 1 5 1 10 3 4 1 9 3 1 0 3 1t4 1q11 4 20 6l22 8-1-1-1-1v0h1q-4-3-9-6l-8-8q-9-9-23-23-16-13-29-25-28-27-52-56-26-28-48-58-5-8-8-15-2-7-2-16t2-15q3-7 8-15 22-30 48-59 24-28 52-55 13-12 29-26 14-13 23-22 4-4 8-7 5-4 9-8h-1z" horiz-adv-x="750" />

<glyph glyph-name="grass" unicode="&#xe801;" d="M277 276q2 0 3-1 2-1 3-1v0-1q-1 1-3 2-1 1-3 1z m-64 247h3 2-4-4 1 2z m94-122q1 0 2-1h1v0-1q-1 1-2 1 0 1-1 1z m76 100q-1 0-1-1h-1q1 4 3 8 1 4 3 8-1-4-3-8-1-3-1-7z m188 17h-1q-1 0-2 1 2-1 3-1t2-1h-1q-1 0-1 1z m-135 130q-4-6-7-11t-7-11l6 8q2 4 5 8 1 1 1 3 1 1 2 3z m190-254h-1-2q-1 1-3 2l-2 2 4-2z m-8-114q-6 2-11 3-5 2-11 3 4-1 9-3 3-1 7-3h3 3z m-265 117v2q1 1 1 2v-2-2h-1v0z m408-82v-5-1-7q0-21-4-40-5-18-14-35t-22-31q-14-16-32-29-16-12-35-23-17-10-36-18-19-8-39-15t-39-12q-21-6-42-10l-41-9-41-8q-21-3-43-4 2-19 5-35 2-18 5-34h-3-2-36-33-46q-6 16-10 35-5 18-7 40-25 5-51 11-26 8-50 18-26 10-47 23-22 13-39 30-24 20-37 44-14 24-18 50-1 8-2 15t-1 14q-1 11-1 21 0 10 1 20 1 20 5 41 7 38 25 72 19 35 49 66 29 32 61 58 32 26 64 48 34 23 69 45 37 21 73 41 38 19 76 36 38 18 77 33 27-39 58-77t62-74q32-37 57-77 25-41 44-85 8-18 14-35 7-19 13-37 6-14 9-29 3-15 4-31z m-137 79q1 0 1-1h2q-6 6-14 11-8 5-18 9-9 3-19 6-9 3-17 5l-18 4-18 4t-18 2q-9 1-19 0-18-1-36-3-17-3-34-6-15-3-28-10-14-5-28-14-1-1-3-2-1 0-2-1 1 5 1 11 2 5 3 10 2 5 3 11 1 5 3 10 20 21 43 36 25 16 53 25 20 7 41 11 21 4 42 4h11 10 5q3 0 6-1-1 1-2 1l-1 1h2 1q-6 3-11 5-6 3-12 5t-13 4q-6 1-13 2-13 2-27 2t-28-1q-13-1-25-3-12-3-23-7-9-3-17-8-9-4-15-10l-4-2q-3-1-5-3 6 19 13 37 5 18 12 36l10 25t10 26q2 5 5 11 2 6 4 11-1-1-1-2l-2-2q1 1 1 3 0 1 1 2-14-18-27-36-11-18-23-37-10-17-19-35-9-16-15-34l-2-4-2-4q-4 3-9 6t-11 6q-7 4-10 6-3 2-4 2-12 6-25 9-13 4-26 5-12 1-25 0-11-1-22-6-2-1-4-1-1 0-3-1h1 1q0-1-1-1h-1q10-2 19-4 8-1 18-4 9-2 17-6 8-5 15-11l14-9q7-6 13-12t10-14q6-7 9-15l-1-3t-8-21q-1-6-2-10-2-6-2-11v-1q-1 0-1-1l-12 8q-5 3-11 6t-12 4q-6 3-13 5-7 3-15 4-8 2-16 2-9 1-18 1h-15q-9-1-17-2-9-2-17-4-5-1-12-3l-13-7q-1 0-3 0l-4-2h2 1-1q-1-1-2-1 26 1 50-1 23-3 44-9 19-7 36-20 17-13 32-33-3-10-5-19-2-9-4-19-1-8-1-17-1-7 0-15v-2q-1-1-1-2l-19 10-20 9q-11 5-21 8t-23 5-23 2-26-2q-10-1-20-4-11-3-19-10-1-1-3-1-1-1-3-2h1 1l-1 0h-1 1 4q14 0 26-1 12-1 23-3 12-2 25-7 11-4 23-10 10-5 21-12l19-13q9-9 18-17 7-9 16-17v-2q0-1 1-11 1-13 3-28 3-13 6-29t11-28q7-12 19-21h1v0-1q1 0 1 1v0h1v1q-1 13-1 26v25q-1 13 0 25v24q13 14 28 26t30 21q15 9 32 17t37 14q18 6 37 8 20 3 40 3h1 4 32q15-1 31-1 5 0 10-1 6 0 12-1-1 1-2 1t-2 1h2 3q-19 9-40 13-20 6-41 8t-41 2-40-1q-17-1-35-5-17-3-34-7-16-5-30-12-12-8-23-18-1-1-2-1-2-1-3-2 1 10 2 19 1 10 3 19 1 10 3 20 1 10 3 18 12 13 26 23 14 10 31 17 15 8 32 14t33 10q21 5 42 7t40 1q15-1 29-3 16-2 32-5l9-2q6-1 11-3l-1 1q-1 0-1 1z m-295-130v-1-3-4 0h-1q0 2 1 4v4z m17 234h1v-1 0 0 1h-1z" horiz-adv-x="790" />

<glyph glyph-name="fire" unicode="&#xe802;" d="M776 319q-15-68-48-123-34-57-82-101-51-45-111-70-60-26-131-32-6 0-12-1h-12-6-7q-9 1-18 1l-18 1v1 1 2 6q21-4 41-5 21 0 40 3 20 4 39 10 21 6 40 13 11 4 19 10 8 6 12 14 4 8 4 18 1 10-3 20-1 5-4 9-2 4-5 8t-6 7q-3 4-4 9-3 4-6 10-2 5-4 11t-3 12q-2 6-2 12 0 11 4 21 3 9 12 18l18 13t17 12q-9 0-17-1h-17q-8-2-17-4-8-2-16-6-9-2-15-7-7-4-12-9l-11-12t-11-13q1 14-1 27t-6 25q-4 12-13 20t-21 16q-2 1-4 1l-2 2h-3q-1 1-3 1-4 0-4 5-1 4 2 13 1 7 2 12 2 5 2 6 3 7 7 13t9 11q4 4 9 9t10 10q-10-1-19-3t-20-5-18-7-18-8q-8-5-16-11-7-5-15-12-8-6-13-13t-7-17q-2-11 0-20 2-9 9-15 8-7 14-14t10-15q7-7 7-16 0-10-6-19-4-9-10-17-6-7-12-13 1 10 0 18t-4 12-10 9q-6 5-15 9-8 3-16 5t-17 3h-16-17q9-5 19-10 9-5 17-11 9-5 12-13 4-9 3-21-1-10-7-19-5-8-14-16-10-9-13-19-2-9 2-19 6-17 17-29t29-18q17-7 34-12 17-6 33-8v-1-1-2-6q-24 4-49 12-23 7-47 17t-45 20-41 24q-28 18-51 40t-42 46-33 53q-14 28-23 59 14-15 30-28 18-13 39-27 21-12 37-19 16-7 28-7-17 22-32 46t-32 51q-15 27-21 54t-2 56q2 14 5 25 2 13 6 24 4 12 8 22 6 11 15 23 8 11 17 21 9 11 19 21t21 18 21 19q-11-15-17-29-8-14-13-29-5-13-6-29t3-32q1-8 5-17 3-8 9-16 6-10 10-17t10-13 12-11q6-6 13-12t13-11q8-5 15-8-3 6-6 14-3 7-5 14-3 6-5 14-3 7-5 14-4 13-5 26t1 28q2 15 6 28t13 23q10 12 20 23 9 10 21 19l22 20 23 19q9 8 21 17t25 19q14 10 21 22 9 12 11 25 2 15 0 29-3 13-11 25-6 13-15 26-8 11-17 23 30-10 55-23 24-15 44-34 18-19 33-43 15-22 25-48 10-29 18-57 7-28 11-58 4-28 2-58-2-30-9-61 15 1 30 3t31 5q15 4 29 10 14 6 27 13 8 4 14 9l13 8q5 5 11 10 6 6 11 12t8 11q4 6 6 12 3 7 3 14 2 5 3 12 6-10 11-21 6-12 10-23 5-11 7-23t2-24q-1-11-3-20t-6-18q-3-7-7-16l-8-18q-9-19-24-35-15-17-33-29-19-14-37-25-19-11-39-20 8-3 16-5 9-1 19 0 8 0 18 2t21 5q19 6 39 14t39 21 34 23q15 13 24 26z" horiz-adv-x="810" />

<glyph glyph-name="fighting" unicode="&#xe803;" d="M261 241l-32-30v-79l-33-29h-164l-32 29v218q11 9 32 28h279q10-9 32-28v-80l-32-29h-50z m430 137q11-9 33-28v-218l-33-29h-126l-32-29v-27l-32-29h-255v53h29q10 10 30 28v44l32 29h50q11 10 32 29v149q11 9 32 28h240z m-691 84v7 2 60 53 78q0 16 12 28 11 13 28 13h9 60q17 0 29-13 11-12 11-28v-8-61-53-78q0-16-11-28t-29-12h-9-14-46q-17 0-28 12t-12 28z m724 200v-8-61-53-78q0-16-12-28-13-12-29-12h-3-5-62q-16 0-28 12t-12 28v7 2 60 53 78q0 16 12 28 12 13 28 13h24 46q16 0 29-13 12-12 12-28z m-531-200v9 2 71 65 93q0 16 12 28t28 12h8 59q16 0 28-12t12-28v-10-72-65-93q0-16-12-28t-28-12h-11-12-44q-16 0-28 12t-12 28z m191 0v9 2 71 65 93q0 16 12 28t28 12h8 57q17 0 29-12t11-28v-10-72-65-93q0-16-11-28t-29-12h-9-12-44q-17 0-28 12t-12 28z" horiz-adv-x="771" />

<glyph glyph-name="lightning" unicode="&#xe804;" d="M398 762q-18-50-47-124t-68-174q55 14 138 33 83 19 193 44-62-90-157-226-94-136-220-318 21 65 52 161t72 224q-60-17-150-42t-211-57l166 200q100 119 232 279z" horiz-adv-x="650" />

<glyph glyph-name="psychic" unicode="&#xe805;" d="M761 366q-29-72-68-129-40-58-89-102-51-44-107-66t-116-23v0 0h-1v0q-61 0-116 23t-107 66q-50 44-90 102-39 57-67 129 28 78 67 140 40 63 90 112 51 47 107 71 55 24 116 24v0h1v0 0q60 0 116-24 56-24 107-71 49-49 89-112 39-62 68-140z m-466 7q-4 0-7 0t-7 2q5-15 14-29t22-24 30-17q15-5 33-5 21 0 40 7 19 8 33 23t22 33q7 18 7 40 0 20-7 39-7 17-22 33-14 15-33 23t-40 7q-3 0-6-1h-5l-6-2q-2 0-5-1 6-4 11-10 4-6 8-14 4-7 5-15 2-7 2-16 0-16-5-30-6-12-18-23-10-12-23-18-14-4-29-4h-7q-4 1-7 2z m384-4q-23 58-53 105-31 48-70 84l-12 10t-13 10q-2 1-3 3l-4 1q-4 3-8 6-5 3-9 6l-4 2q-2 2-5 3-4 2-9 5l-9 4q-2 1-3 2-2 1-3 1-1 1-2 1-1 1-2 1 19-9 37-21 18-12 35-29 33-33 50-73t16-87q0-48-16-88-17-41-50-74-34-34-74-50t-88-17q-47 0-87 17t-74 50q-33 33-50 74-17 40-17 88 0 47 17 87t50 73q16 17 34 28 19 13 37 21h-1t-2-1q-1 0-3-1-1-1-3-2l-9-4q-5-3-9-5-3-1-5-3l-4-2q-4-3-9-6-4-3-9-6-2-1-3-1-2-2-3-3l-12-10q-7-5-12-10-40-36-71-84-30-47-53-105 23-53 53-97 31-43 71-76 39-33 83-50 43-17 91-17 49 0 92 17 44 17 84 50 39 33 70 76 30 44 53 97z" horiz-adv-x="790" />

<glyph glyph-name="water" unicode="&#xe806;" d="M490 579q-3-16-3-33t4-33q3-16 9-32 6-15 13-29 8-15 16-29 10-12 21-25t22-25l22-23t19-24q10-12 19-25 10-12 16-26 6-14 10-28 4-16 6-32 1-15-1-32-2-16-7-31-5-15-11-29-7-14-16-27t-21-23q-10-12-23-21-12-10-25-16t-29-13q-13-5-28-9-16-3-30-6-15-2-31-4-13-2-26-3h-28-15t-15 1q-22 1-43 4t-43 8v4 1 10 20q23-9 44-14t40-5q21 0 33 5t15 14q4 9-1 21-4 11-17 25-14 13-32 25t-42 21q-23 9-44 14t-41 5-32-5-16-14q-4-10 1-21t19-25q13-14 32-25 17-12 41-21v-4-1-9-21q-39 9-74 24-36 14-68 35-33 20-59 48t-44 61q-13 26-20 54-7 28-7 56v8 8q2 34 10 65t21 62l14 29q8 15 18 29 8 14 19 27 10 14 21 26 11 13 24 24 12 11 24 22 14 11 28 21t28 18q62 39 129 64 66 24 139 35t143 18q72 7 144 11-7-2-15-4l-14-4q-7-2-14-3l-14-4q-33-10-66-24t-67-31q-34-19-54-46t-28-64z" horiz-adv-x="790" />

<glyph glyph-name="darkness" unicode="&#xe807;" d="M762 387q0-53-13-100t-38-91q-24-44-57-78-33-35-73-60-22-14-46-24t-49-19-51-12-54-4-55 4q-26 4-51 12-26 8-49 19t-46 24q-40 25-74 60-32 34-56 78-26 43-37 91-13 47-13 100 0 68 21 127t61 112q41 51 92 85 51 34 112 49-38-23-61-63-24-41-24-89 0-75 53-128t127-53v0 0q74 0 127 53t53 128q0 48-23 88-23 40-61 64 60-15 111-50 51-33 92-84 41-52 61-112t21-127z" horiz-adv-x="790" />

<glyph glyph-name="metal" unicode="&#xe808;" d="M120 584q-11-19-18-35-8-14-13-24 21-43 37-75 17-32 27-53-32 0-55 1h-40q-20 41-35 71-13 31-23 51 19 35 32 61t24 44q1 1 1 2l1 2q18 36 32 62t22 43q42 3 74 5t51 3q17-31 30-54 11-23 19-38-44 0-77-1-33 0-55-1-10-20-18-34-8-16-14-26l-1-2q-1-1-1-2z m641-64q-20-41-33-71-15-31-24-51-32-1-56-1h-41q22 42 38 74 16 32 27 54-11 19-18 34l-12 25-2 2t-1 2q-11 20-19 35-8 15-13 25-43 1-77 1-34 1-55 1 15 31 28 54 12 23 20 38 42-3 73-5 31-1 52-3 19-34 33-61t23-44q0-1 1-2 0-1 1-2 19-35 32-61t23-44z m-248-296q16-29 28-53 12-22 20-38-23-38-39-67-17-28-29-48h-64-46-3-1-65-46q-23 38-39 67-18 29-29 48 16 32 28 54t20 37q22-41 39-72 17-31 28-52h37 27 2 2 36 26q23 41 40 72 17 32 28 52z m46 321h-363l182-331q61 111 181 331z" horiz-adv-x="790" />

<glyph glyph-name="dragon" unicode="&#xe809;" d="M739 138l-8-17-9-16q-6-9-12-17-6-8-12-16-15-18-34-32-17-14-39-25-20-11-42-18-22-6-46-10-11-1-22-2t-25-1q-33 0-67 7-35 6-72 19-50 19-96 49t-89 71q-22 23-42 46-19 25-37 49-17 26-30 52-14 26-25 53-15 41-24 83-8 41-8 81v15q1 8 1 15 4 49 21 90 15 40 44 74 16 18 34 32 17 14 38 25t43 17q21 7 45 11 11 2 23 3h24q33 0 67-6 34-7 69-20 50-17 95-45 46-30 89-70-31 24-64 39-33 17-67 25-34 8-66 9-32 1-62-4-16-4-30-9-16-5-30-13-13-7-26-17-12-8-21-20-23-24-35-55-12-31-13-68t9-72 31-70q12-18 27-36 15-16 33-32 18-17 39-30t47-25q-9 37-9 44l-2 6q-6 25-13 55-8 28-16 60l-8 35q-4 17-8 35-4 16-8 32-3 16-7 30-1 3-1 5-1 2-1 3-1 3-1 5-1 2-2 3 9-6 10-8l1-1 12-12t15-14q17-16 38-37 22-21 49-46 26-26 55-53t57-56q26-24 50-48 25-24 50-47 24-24 47-45t43-41q4-3 6-6 3-4 6-7 3-2 5-5z m-169 57q-7 8-23 24-12 11-25 24t-29 27q-8 8-16 16-8 7-16 14l-16 16-13 14q-1 1-2 1l-2 1q-1 2-2 2l-2 2q6-25 7-29l1-5q4-16 8-34l8-35q31-9 35-11l5-1q21-6 41-13z" horiz-adv-x="771" />

<glyph glyph-name="fairy" unicode="&#xe80a;" d="M323 177q13-20 24-42 9-20 15-43 7-21 10-43 4-22 4-45v-3q0-1-1-3-57 15-110 39-53 23-104 55t-86 77-54 102q-7 19-12 38-4 20-7 39-1 12-1 22-1 10-1 21 0 10 1 20 0 9 1 19 4 37 15 73 10 36 29 71 18 34 42 61 24 29 57 50-13-26-26-54-12-26-22-53t-15-56q-3-28 0-59 3-23 10-44 7-21 16-41 11-18 25-35 15-16 33-31 11-9 23-17 10-7 22-14t22-14q12-8 23-16 11-6 20-15t18-19 15-19q7-10 14-21z m134 292q-10-15-17-33t-10-38l-10-39q-4-21-8-42-2-7-3-14-1-8-2-14t-3-14q-1-7-3-15v-2q-1-2-2-2 0-1-1-1h-1-3t-2 1q-1 0-2 2v2q-2 8-3 15-2 7-3 14t-2 14l-4 14q-3 21-7 42-4 19-10 39-4 19-10 38-7 18-17 33-11 16-24 30t-31 28q-16 12-35 23t-39 25q-4 2-9 5-4 3-8 6-4 3-9 5-5 3-9 6-1 0-2 1l-2 2v1 2 1 1l2 2t2 1q1 1 2 1t2-1q4 0 9-1 4-1 7-1 5-1 10-1 4-1 9-1 7-2 15-3 7-2 14-3t15-2h15q10-1 19 0t17 3 13 6q7 3 12 7 10 8 18 19 8 11 12 26 6 15 11 30l10 31 2 10 2 10q2 5 3 10 2 4 3 8 0 1 1 2t1 2q1 0 2 1h3 1q0-1 1-1 1-1 1-2 1-1 1-2 1-4 3-8 1-5 3-10l2-10t3-10q4-15 9-31 5-15 11-30 6-15 12-26 8-11 18-19 5-4 12-7 6-4 13-6t17-3 19 0h15q7 1 15 2 7 1 14 3 8 1 16 3 4 0 9 1 4 0 9 1 4 0 7 1t9 1q1 1 2 1t2-1q1 0 2-1l2-2v-1-1-2-1l-2-2t-2-1q-4-3-9-6-4-2-8-5-5-4-10-6t-9-5q-20-13-38-25t-35-23q-18-13-31-28t-24-30z m312-198q-20-57-55-102t-86-77-104-55q-53-24-110-39-1 2-1 3v3q0 23 4 45 3 22 9 43 7 23 16 43 11 22 24 42 7 11 15 21 6 9 15 19 8 10 17 19 10 9 19 15 12 8 23 16l23 14t23 14q11 8 22 17 19 15 33 31 14 17 25 36 9 19 16 40 7 21 10 44 3 31-1 59-3 28-14 56t-23 53q-12 28-24 54 32-21 56-50 25-27 42-61 18-35 30-71 10-36 14-73 1-10 1-19 1-10 1-20 0-11-1-21 0-10-1-22-3-19-7-39-5-19-11-38z" horiz-adv-x="830" />

<glyph glyph-name="shiny" unicode="&#xe80b;" d="M678 554q2-2 2-8v0q0-5-5-10l-8-11q-8-10-56-71-20-27-40-53-20-26-41-52-13-18-21-32-9-16-9-35v-6q0-5-1-37 0-14-1-34 0-20-1-49v-21-20-2q0-1-1-7 0-14-10-21-10-7-22-7h-6q-3 1-5 2-16 2-33 8l-33 12q-8 3-17 6-8 3-15 5l-10 4q-5 1-11 4-16 4-32 10-17 5-32 5-7 0-12-1-6-1-11-3l-8-3q-8-4-56-23-21-9-51-22-30-11-72-29-2-1-3-2-1 0-3-1-5-2-11-5-6-2-12-2h-4q-2 1-3 1-4 2-7 4t-5 6q-3 6-1 13 3 8 5 14 1 0 1 1 1 1 1 2l2 6q3 5 14 35 6 14 14 34t18 46q6 13 7 26 2 12-5 23l-5 12q-4 6-7 12-2 3-3 6-2 2-4 5l-4 7t-29 53q-1 1-2 3t-2 3q-5 8-8 16-4 6-4 15v1q1 20 7 30 6 12 17 16l6 2q7 2 46 16 8 3 17 5l15 5q17 5 34 11 16 5 32 13 23 11 39 28 16 19 29 39l4 6q5 7 30 46 11 17 27 41 16 24 39 60 4 5 9 8 5 4 10 4 3 0 8-3 6-2 9-11l2-4 14-34q4-12 11-30 8-17 18-43 1-2 1-4 1-2 2-3l6-15q4-7 10-12 10-8 19-9t20 0l4 1q6 0 39 3 15 1 36 3 21 2 50 5 11 1 23 2l21 2q9 1 15-2 7-3 9-9z m-562-367q3-4 11-6 5-1 9-1h6q6 1 12 3 7 2 13 5 3 1 5 2 3 0 6 1l24 10q26 9 42 16v0h2q12 0 23-3 9-2 20-6 5-2 30-9 25-7 42-7h6t3 1q16 6 22 18 5 13 6 32v7 8q0 11 0 22 0 10 1 21 2 21 10 36t22 32q22 23 41 48 16 24 16 35v2t-1 2l-1 0q-2 1-6 1-6 1-18 1h-13q-7 0-13-1h-15-14q-13 0-21 1t-12 3q-14 8-18 24-4 14-6 29-1 3-1 6-1 3-1 5-1 2-1 3 0 2-1 4-1 7-4 19-3 14-9 14-2 0-4-1t-5-4q-15-14-46-53t-45-57l-1-1q0-1-4-7-7-9-16-18-10-9-22-15-1 0-5-2-4-1-10-2-17-5-46-15-28-10-32-22-1-3-1-7t2-9q4-7 8-15 1-2 2-3l2-3v0q0-1 3-5 6-11 11-22 6-10 8-23 3-17-1-32l-8-27q-2-6-4-11l-4-11q-1-4-1-7z m722 450q12-12 13-27 0-1-1-3-1-17-16-32-8-8-17-12t-18-4q-8 0-15 3t-12 9q-12 11-12 27v3q1 18 15 32t33 16h3q15 0 27-12z m247 53q-2-15-11-27-8-14-21-24-11-8-26-12-14-4-31-4-19 0-35 5-17 6-24 16-7 10-11 21-2 7-2 15 0 4 1 9 2 14 10 27 8 13 22 23 11 8 25 12 14 4 31 4 20 0 36-6 16-5 24-15 7-10 10-21 3-7 3-15 0-4-1-8z" horiz-adv-x="1105" />

<glyph glyph-name="ex" unicode="&#xe80c;" d="M1041 397l31-55q33-53 73-124 27-46 54-93l48-82h-41-94-70-62l-19 32q-18 31-42 72-16 26-31 54l-28 47-52-42t-120-98q-45-37-91-74-45-38-79-66h-43-2-104-78-68l34 28t58 47h-48-111-83-73v1q0 2 1 3l2 14t6 39q7 46 17 122 12 76 25 162 14 89 26 177 14 89 24 156h15 44 138 183 199 175l13-24q15-25 32-55 13-21 25-42t20-36l35 27q34 29 78 65 29 23 58 48t52 42h45 103 79 68l-9-7q-9-8-24-21-30-23-77-62-48-40-103-84-56-46-111-91-56-46-98-80z m-440 296l-4-25q-3-24-8-56-4-21-7-42t-6-38h-40-92-69-60l-4-26t-6-42h32 74 57 49l-4-24q-3-25-8-57-4-20-7-42t-5-37h-33-74-56-50l-4-28t-6-48h39 2 95 72 62l34 28t79 65q30 24 60 49 29 23 52 42l-26 43q-24 43-57 99l-43 74t-38 65z" horiz-adv-x="1490" />

<glyph glyph-name="ao" unicode="&#xe80d;" d="M535 15q-30-12-72-15h-16q-32 0-59 10-19 7-33 20-15 11-23 30-14 33-14 69 0 26 8 53 17 65 48 113 12-80 58-157 45-77 103-123z m-108 291q60-54 145-83 84-29 159-28-16-28-46-57-30-29-64-41-18-7-38-7-18 0-36 9-55 29-84 89-28 60-36 118z m34 42q80-1 164 30t140 81q3-17 4-38v-5q0-17-3-36-6-39-25-72-19-32-55-41-20-4-39-4-41 0-82 19-61 27-104 66z m159 335q14-11 27-26 13-16 25-34 20-33 27-71 2-9 2-16 0-28-17-50-38-49-103-68-57-16-108-16-7 0-14 1 63 50 106 128t55 152z m-255 78h2q31 0 71-11 40-10 68-34 15-12 24-29t11-36v-8q0-58-34-109-38-55-84-91 16 79-1 167-18 88-57 151z m-245-104q14 11 31 22 17 11 38 19 36 14 74 14h1q37 0 62-27 42-45 49-111 2-24 2-47 0-40-8-76-39 70-108 127-70 55-141 79z m-120-238q5 32 23 70 18 37 45 61 15 13 34 20 12 5 26 5 5 0 11-1 61-8 109-54 48-47 75-98-75 29-164 27-90-2-159-30z m307-48q-76-27-144-86-67-59-101-125-10 15-17 34-8 19-13 40-5 21-5 44 0 15 3 32 6 37 38 58 46 29 104 29h15q66-5 120-26z m-33-370q-15 5-34 15-17 10-35 24-30 23-50 56-12 21-12 43 0 13 4 26 17 58 71 97 54 40 109 59-41-70-54-158t1-162z" horiz-adv-x="810" />

<glyph glyph-name="break" unicode="&#xe80e;" d="M0 43q2 9 5 18l4 18q16 61 36 135 19 75 38 148 13 49 24 94 13 47 24 87 19 77 32 125l13 49h5 6 41 45 74 33q30 0 59-2 28-1 54-4 26-3 50-10 23-8 45-21 23-13 39-30 16-17 23-37 9-21 10-42v-8q0-17-4-34-6-24-18-43-12-20-30-37-18-17-43-32-26-15-58-28 15-5 26-12 13-6 23-15 10-9 17-19 8-10 13-20 6-11 9-22 3-11 4-23 2-12 1-23-1-11-4-22-7-26-19-46-12-22-31-40-19-18-40-32-23-15-49-27-25-11-56-20-29-8-61-14-33-5-67-8t-71-3h-78-55-60-2-7v0z m458 483q3 10 3 18 0 8-2 15-4 16-18 26-12 11-35 16-17 4-42 4-5 1-9 0-10-37-17-64t-12-43q-11-42-12-50l-2-7q29 0 53 6t44 17 32 28q12 14 17 34z m-63-278q2 10 3 19 0 9-3 17-5 16-19 29-15 13-38 18-22 6-50 6h-3q-11-41-18-70-8-28-13-49-13-47-15-54l-2-8q4-1 8-1 27 0 50 6 25 5 47 18 20 13 33 30 14 18 20 39z m256-205q2 9 5 18l4 18q17 61 36 135 19 75 38 148 13 49 25 94 13 47 23 87 20 77 33 125l12 49h5 6 42 46 77 33q26 0 54-1 28-2 59-4t60-7q29-6 55-16 26-9 47-24t35-34 16-46q1-6 1-13 0-22-7-48-6-28-22-54t-39-48q-24-22-58-40-33-18-76-32 24-69 40-118 17-50 29-83 26-79 31-92l4-14h-6-6-44-48-80-36l-2 8t-3 9q-9 28-20 62-11 34-23 68-20 64-37 114l-17 50h-3l-1-8-2-8q-8-28-17-62l-18-69q-16-63-29-113l-14-51h-4-6-42-45-76-35v0z m309 384h36q35 0 63 7 27 6 46 20 19 13 31 31 12 17 17 38 3 9 3 17v4q0 7-1 13-1 8-5 15-4 7-11 12t-17 11q-10 4-22 7t-30 4q-11 1-25 1h-11-24-3q-1-2-1-4-1-3-2-5-4-17-9-36-6-20-11-39-9-37-16-67z m1008 290q-12-42-33-125h-6-5-43-46-77-34q0-2-1-4t-1-4q-4-13-8-29-4-16-9-32-8-30-14-54l-5-23h4 5 37 41 69 29q-11-42-32-125h-5-5-37-41-68-30l-2-4q0-2-1-4-2-15-7-31-4-17-9-34-8-31-15-55l-6-25h6 5 44 47 78 34q-11-41-33-125h-11-10-85-93-155-5-63q3 9 5 18t5 18q16 61 35 135t39 148q12 49 25 94 11 47 22 87 20 77 32 125l13 49h11 11 84 92 153 69z m568 0l2-17 2-18q7-61 16-136 8-74 16-147 6-49 11-95 6-47 10-87 9-76 14-125l6-49h-6-5-45-49-81-36q-3 38-9 114h-6-6-42-47-77-34q-22-37-66-114h-6-5-42-45-76-2-31q4 9 10 18t11 18q38 61 85 135 46 74 92 148 56 90 106 170t80 129q17 26 27 42l8 14h6 6 44 48 80 36z m-164-275q1 34 3 101h-3q-16-33-49-101-1-2-3-5-1-2-2-5-8-16-18-36-10-20-21-39-18-37-33-66l-15-29h4 4 30 32 54 1 22v5 5q-1 17-1 36l-2 39q-1 37-2 67z m692 275l-2-8-2-7q-8-29-17-61-8-33-17-66-16-62-29-111l-13-48h3q4 3 7 8 4 4 7 8 22 27 51 61 27 33 54 65 52 63 93 110l40 49h6 6 42 47 77 35q-4-4-8-9-3-3-6-7-26-29-56-63l-61-68q-56-64-100-114l-44-50q1-4 3-9t3-10q11-33 25-72l27-80q26-74 46-133l21-59h-6-6-44-49-80-4-31q-1 5-3 9-1 5-3 10-9 30-19 68-12 37-23 76-21 70-38 125l-15 55h-3q-2-4-3-9-1-4-2-8-9-32-19-69l-19-76q-18-70-33-125l-14-56h-5-6-42-46-76-33q2 9 5 18l4 18q16 61 35 135 19 75 39 148 12 49 24 94 13 47 24 87 19 77 32 125l13 49h4 6 41 46 76 35z" horiz-adv-x="3490" />

<glyph glyph-name="c" unicode="&#xe80f;" d="M437 189l4-5t32-34q-43-49-99-78-57-29-117-29-42 0-78 14-37 13-68 37-56 44-87 120-24 60-24 128 0 19 2 37 4 49 19 94 15 45 39 83 44 72 111 115 68 44 144 44 62 0 113-28t85-77l-5-5q-6-5-38-35-21 33-50 53-30 18-65 18-48 0-91-34-42-33-71-90-15-29-25-64-11-36-14-74-9-108 36-185 45-76 119-76 36 0 68 18 33 20 60 53z" horiz-adv-x="550" />

<glyph glyph-name="delta" unicode="&#xe810;" d="M620 712l-1-1t-1-2q-14-15-29-30-15-15-28-31-1-1-6 0-6 1-7 1h-11-12-22q-12-1-22-1-23-1-45-4-23-2-44-6-17-3-34-7-16-5-30-13-6-4-11-10-3-6-2-14 1-12 9-20 9-10 18-17 10-8 19-15 11-6 23-13 21-12 42-25t38-31q36-36 52-83 14-48 14-98 0-39-13-75-14-37-38-67-52-66-135-92-46-15-92-15-35 0-71 10-44 11-82 36-38 27-64 65-24 37-32 81-3 18-3 37 0 25 6 50 18 79 84 132t143 63q-17 22-30 49-12 27 2 55 9 17 26 30 16 12 33 20 36 18 76 26 40 9 80 13 47 5 94 6h19q38 0 75-3h6t6-1z m-344-247q-25 0-50-7t-49-19q-43-24-71-65-26-36-26-81v-9q4-75 56-120 46-42 109-42 8 0 16 1 62 3 116 44t65 105q2 15 2 28 0 33-13 64-21 44-59 70-20 15-45 22-24 9-51 9z" horiz-adv-x="650" />

<glyph glyph-name="ex2" unicode="&#xe811;" d="M806 244l9-30q8-30 21-68 8-25 16-52 7-25 13-45h-30-71-54-47l-2 6q-1 5-11 37-4 14-10 34-7 20-15 48-28-21-45-54-17-33-17-71h-3-2-40-37-50q0 82 43 151 42 68 110 104l-12 37q-10 36-18 62h-24-39l4 34q5 35 8 59h8 13 23 51 38 33 21 38l1-5q2-5 11-36 4-13 10-33t15-47q25 22 41 53 15 32 15 69h20 47 35 30q0-82-41-149-41-66-106-104z m-369 134l-5-40q-5-39-8-66l-2-12q-1-12-2-21h-37-85-65-55l-1-3q0-3-2-20-3-23 13-41 14-17 39-17h6 49q24 0 46 8 23 8 42 23l-2-14q-1-13-12-94-19-15-41-24-23-8-45-8h-20-31-12-19-1-2-28q-73 0-119 52-38 43-38 102 0 11 1 23l3 18q2 16 3 28v0 0 0 1q4 31 16 61 12 30 30 56 33 47 84 76 50 30 106 30h11 19 22 37q50 0 80-35 26-29 26-67 0-8-1-16z m-174 25h-4-26q-9 0-17-8-8-7-10-17v-4q-1-4-4-31v-3q0-8 5-13 6-7 16-7h2 2 25q11 0 19 7t8 16l1 14q2 13 3 21v4q0 8-5 13-5 8-15 8z" horiz-adv-x="990" />

<glyph glyph-name="fb" unicode="&#xe812;" d="M192 717h212q-3-25-7-77h-213q-7-68-22-206h175q-3-25-8-76h-175q-10-105-33-315h-121q11 106 33 315 3 25 8 76 7 69 22 206 2 26 7 77h122z m586-485q-7-78-74-133-66-56-151-56v0 0h-23-36-20-26-75l3 30q3 28 5 48l1 6t1 12l3 28q3 30 7 66 3 24 5 50 2 24 4 42l1 12q2 13 3 21l3 28q3 29 5 48l1 14q2 13 3 23l4 43q5 43 8 71l2 21q3 20 4 34l3 29q2 29 4 48h46 76 7 51q78 0 128-55 42-47 42-112 0-10-1-21-5-44-26-81-23-37-56-64 36-25 55-65t13-87z m-256 202h3 5 64v0 0 0 0q9 0 17 4 9 3 18 10 18 13 31 39 14 26 17 57 1 10 1 19 0 34-14 59-17 32-48 32h-26-45l-5-41q-4-41-7-69v-3q-1-1-1-3l-4-40q-4-38-6-64z m130-195q1 9 1 19 0 17-4 32-5 25-16 41l-5 5q-2 3-5 6-8 7-17 12-9 4-21 4v0 0h-29-49l-5-45t-8-74l-5-45t-8-75h13 17 50v0 0q32 0 59 35 27 35 32 85z" horiz-adv-x="830" />

<glyph glyph-name="galaxy" unicode="&#xe813;" d="M110 43v0 0q-27 0-47 14-22 13-36 37-26 44-27 120v6q0 73 26 160 21 69 54 128 32 60 70 106l-11 15q-11 16-25 36l-19 28t-17 24h10 71 66 90q73 0 99-88 12-39 12-87 0-57-17-127h-7-41-38-53q18 71 20 120 2 47-16 47-16 0-44-47-28-49-52-120h-36-61l3-4t21-30q6-10 18-26 11-17 26-39-13-60-13-99t15-39q14 0 37 34t43 89l-16 24t-27 40h25 41 25 43 9 63q-21-64-52-119-30-56-67-99l12-16q11-15 25-36l19-27t17-25h-10-71-65-92z" horiz-adv-x="470" />

<glyph glyph-name="gl" unicode="&#xe814;" d="M17 717q28-34 84-102-34-191-101-572h204q15 84 45 253 10 56 29 168h-36-66q-10-55-29-168h66q-5-28-15-84h-133q20 113 60 336h133 35q10 57 30 169h-204-102z m384-505h-66q30 168 89 505h-35q-40-224-119-674h204q9 57 30 169 6 34 18 102-41-34-121-102z" horiz-adv-x="550" />

<glyph glyph-name="gl4" unicode="&#xe815;" d="M488 43c-162 0-325 0-488 0 13 76 27 153 39 224 13 0 26 0 39 0l-8-46c-5-30-10-56-13-76 103 0 206 0 309 0 9 45 16 92 25 135-39 0-78 0-117 0 20 115 39 222 59 336-26 0-51 0-77 0-18-99-33-188-51-286-51 0-103 0-154 0 40 35 79 66 118 101 5 0 10 0 16 0 10 63 23 126 32 185-26 0-52 0-77 0-8-48-17-89-24-134l-17-15c-11-9-21-17-29-23 12 62 20 114 31 172-28 33-57 69-83 101h488c-33-192-67-379-101-572 29-38 55-68 83-102z m-39 573c-25 0-51 0-77 0-17-83-26-157-42-236 26 0 52 0 78 0 14 83 28 156 41 236z" horiz-adv-x="550" />

<glyph glyph-name="m" unicode="&#xe816;" d="M443 717q-41-41-124-122-6 41-20 122h-49-126-49q-9-47-26-141h49q-33-178-98-533h175q19 107 58 319 23-50 66-148 24 24 72 72 25 23 72 70v-313h175v674h-175z" horiz-adv-x="650" />

<glyph glyph-name="mega" unicode="&#xe817;" d="M0 43l349 665q46-112 138-335 94 115 282 344 89-123 267-369-55-93-165-276-52 97-155 295l-229-270q-46 79-138 237-117-97-349-291z" horiz-adv-x="1070" />

<glyph glyph-name="plus" unicode="&#xe818;" d="M272 232h22 52 39 34v-31-53h-22-52-39-34v-37-62h-15-17-53v37 62h-23-52-38-35v31 53h23 51 39 35v11 75q-81 14-134 78t-53 146q0 34 9 64 9 31 25 58 31 48 82 78 51 30 114 30 33 0 63-9 30-10 57-25 48-31 79-82 29-52 29-114 0-83-53-146t-133-78v-32-54z m-187 310q0-59 42-101 43-43 103-43t101 43q43 42 43 101t-43 103q-42 42-101 42t-103-42q-42-43-42-103z" horiz-adv-x="490" />

<glyph glyph-name="prism" unicode="&#xe819;" d="M383 354q17-30 52-90-29 18-86 51-10-62-30-186-9 63-29 186-29-17-87-51 18 30 52 90l-100 26 100 27q-17 30-52 90 29-18 87-51 10 61 29 185 10-62 30-185 28 16 86 51-18-31-52-90l99-27z m255 26l-22-30q-21-31-56-79-18-25-39-56-22-29-43-60-42-59-85-117-42-60-74-105l-6 10t-19 26q-22 30-59 81t-77 109q-42 59-84 118t-74 103l7 10q7 9 18 25 22 32 59 83 36 50 77 108l84 117q42 60 74 104l7-9q6-10 18-27 22-31 58-81 37-50 78-108 43-60 85-118t73-104z m-319-363l39 56q40 55 92 127 34 48 69 96t60 84l-40 56t-91 128q-35 48-69 96t-60 84l-40-56t-90-127q-36-49-70-97t-59-84l39-55q40-56 91-128l69-96t60-84z" horiz-adv-x="670" />

<glyph glyph-name="gx" unicode="&#xe81a;" d="M898 214q-17-70-80-121-62-50-134-50h-8-12-45-50-72-147-209q-73 0-113 50-28 36-28 82 0 19 4 39l2 5q1 5 8 34 2 12 7 31 3 18 9 45 9 36 21 89 13 54 29 128 17 71 79 120 63 51 135 51h67 155 116 101 40 65 26 62 46 41l-6-22q-5-23-12-52-4-19-8-38-5-20-7-34h-39-85-65-58-12-24-30-71-54-46-6-38-36-49q-20 0-38-14-18-15-23-34l-2-13q-3-12-20-85-8-32-17-78-11-45-26-109-5-20 7-34t32-15h5 33 32 44 88 128q21 0 39 15 18 14 23 34l6 26t10 43h-35-79-59-53l6 23q5 22 12 51 3 19 8 38 4 20 8 35h37 86 65 57 32 75 55 49l-2-11q-3-10-16-71-6-27-15-65-9-39-21-93z m1052 503h-270q-80-65-241-195-44 65-132 195h-274q76-112 230-338-139-111-416-336h270q81 66 241 196 44-66 133-196h274q-77 113-230 338 139 112 415 336z" horiz-adv-x="1990" />

<glyph glyph-name="30_male" unicode="&#xe81b;" d="M644 391l-32-4q-31-5-52-8l-4 30q-4 28-10 65-3 24-7 49-3 25-6 44l-6-7q-4-6-37-44l-34-39q-19-23-48-57 25-30 37-66 13-37 13-75 0-63-29-114-31-51-79-82-27-16-57-25t-63-9-64 9q-31 9-58 25-48 31-78 82-30 51-30 114 0 61 30 112 30 52 78 82 27 17 58 25 30 9 64 9 29 0 57-8 29-6 55-21l19 22q19 23 43 51l34 39q16 19 29 33h-29q-30 0-67-1h-50q-24-1-44-1v31q-1 32-1 54l49 0q50 0 114 2 42 0 84 1 43 1 76 1l7-48t15-112q6-42 12-85 6-42 11-74z m-270-112q0 59-43 101-42 42-101 42t-103-42q-42-42-42-101 0-61 42-103 43-42 103-42t101 42q43 42 43 103z" horiz-adv-x="690" />

<glyph glyph-name="12_rainbow" unicode="&#xe81c;" d="M726 298q38-40 53-73 17-34 5-55-7-11-23-17-16-7-40-7-19 0-40 4-22 3-47 10 11-49 7-80t-22-42q-5-2-9-4-4-1-10-1-20 0-46 15t-56 44q-16-50-35-79-20-28-42-28t-42 28q-20 29-35 79-29-28-56-44t-46-15q-6 0-11 1-3 2-8 4-18 10-22 42t7 80q-25-7-47-10-21-4-40-4-24 0-41 7-15 6-22 17-12 21 4 54 14 32 54 75-53 16-84 36-30 22-30 45t30 45q31 21 84 36-40 42-54 76-16 33-4 53 7 12 22 18 17 6 41 6 18 0 40-3 22-3 47-10-11 49-7 80t22 42q5 2 8 4 5 1 11 1 20 0 46-16t56-44q15 50 35 80 19 28 42 28t42-28q19-30 35-80 29 29 56 44t46 16q6 0 9-1l10-4q18-11 22-42t-7-80q24 7 47 10 21 3 40 3 24 0 40-6 16-6 23-18 12-20-4-53-14-34-54-76 53-15 84-36 30-21 30-45t-30-45q-32-20-84-37z m-103 261q9 2 17 2 8 1 15 1 19 0 31-5 12-5 17-14 7-11 2-29-6-18-22-41 4-1 8-2 4-1 9-2 26 29 36 54 5 14 5 24 0 9-4 16-6 10-18 15-14 4-34 4-12 0-27-1t-30-5q-1-4-3-8-1-5-2-9z m84-179q0 10-8 19t-22 16q-10-8-21-17t-22-18q12-8 22-17t21-18q14 8 22 17t8 18z m-35-58l-8-2q-3-2-7-3 3-3 5-6 3-2 5-5 5 1 8 2l8 2q-3 3-5 6z m-77-97q-4 11-8 23-4 10-8 22h-6q-2-1-5-1 4-11 7-21 4-10 6-21 4 0 7-1t7-1z m-9-16q1-3 1-6 1-4 2-7 4-2 7-3l8-2q-1 3-1 6-1 2-2 5v2q-1 1-1 2-3 0-7 1t-7 2z m-77 40q0 4 1 8 0 3 1 7h-5-5q0-3-1-6v-5l4-2q3-1 5-2z m-11-9q-1-3-1-5 0-3-1-6 3-1 5-2t5-2q0 3 1 6v5l-4 2q-3 1-5 2z m14 43q1 2 1 5v4q-2 0-4-1h-5v0 0q0-2-1-4v-5q2 0 5 1h4z m18 97q0 46-32 77-32 33-77 33-46 0-77-33-32-31-32-77t32-77q31-32 77-32 45 0 77 32 32 31 32 77z m-174-135v-5q1-3 1-5 5 2 9 4t9 4q-2 2-3 4t-3 3q-3-1-7-2-3-1-6-3z m6 16l-1 1v1h-4-3v-3-2q2 1 4 2 2 1 4 1z m-1-45q2-9 4-15 2-8 4-15l13 13t13 14q-2 4-5 7-2 4-5 7l-12-6t-12-5z m30 34l4 2 3 2q0 1 0 2l-2 2t-2 1q-1 1-3 2-1-1-3-2-1-1-2-1l2-4q2-2 3-4z m-17-81l2-5t2-5q8 7 16 16t15 19q-2 2-3 4-2 3-3 5-7-9-14-18-8-8-15-16z m33 59l3 3q1 2 3 4l-2 2-2 2-4-2-4-2q2-2 3-4t3-3z m-19-90q8-13 15-20 9-7 18-7t18 7q7 7 15 20-9 10-16 20-9 10-17 21-9-11-17-21-8-10-16-20z m33 71q1 2 3 4 1 2 3 4-2 1-3 3-2 2-3 4-2-2-3-4l-3-3q1-2 3-4 1-2 3-4z m42-50q2 2 3 5l2 5q-7 8-15 16-7 9-14 18-1-2-3-5-1-2-3-4 7-10 15-19t15-16z m-28 69q2 1 3 3t2 4l-3 2q-3 1-5 2 0-1-1-2l-2-2q2-2 3-4z m38-42q2 7 4 15 2 6 4 15-6 2-12 5-7 3-13 6-2-3-5-7-2-3-5-7 7-7 14-14z m-22 64l2 4q2 2 3 4-1 0-3 1-1 1-3 2l-2-2q-1 0-3-1 0-1-1-2l-2-2q3-1 5-2z m33-15v5q1 3 1 5-3 2-6 3-3 1-6 2-2-2-3-3t-3-4q5-2 9-4t8-4z m3 23q1 1 1 2v3h-4-3q0-1-1-1v-1q1 0 3-1z m-156 6q1-4 1-7 0-4 1-8l4 2q3 1 5 2 0 3-1 5v6h-5-5z m8 18q0 3-1 5v4 0 0h-5q-2 1-4 1v-4q0-3 1-5h4q3-1 5-1z m-5-46q1-3 1-5 1-3 1-6 2 1 5 2 2 1 5 2-1 3-1 6 0 2-1 5-2-1-5-2-2-1-5-2z m-73-8q2 10 6 20 3 10 6 21-2 0-5 1h-5q-5-12-9-22-4-12-7-23 3 0 7 1 3 1 7 2z m-19-22q-1-1-1-2v-2q-1-2-2-5t-1-6q4 1 7 2 4 1 8 3 1 3 2 7 0 3 1 6-4-1-7-2-4-1-7-1z m-35 174l-21 18-22 17q-14-7-21-16t-8-19 8-18 21-17l22 18z m-37-58l-6-6-6-6 8-2t9-2q2 3 5 5 2 3 5 6-4 1-7 3z m-9 127q2-3 5-5 2-2 4-5l8 2q3 2 7 3l-5 5-6 6-8-2q-3-1-7-2 0-1 1-1 0-1 1-1z m86 87q3-11 7-23 4-11 9-22h5q3 0 5 1l-7 21q-3 10-6 21-3 0-6 1-4 1-7 1z m9 15q-1 4-2 7 0 4-1 7-4 2-8 3t-7 2q0-3 1-6 1-2 1-5 1-1 1-2v-2l8-2q3-1 7-2z m49-206l-4 2q-2 2-4 3-1-2-2-5l-2-4q2-1 4-3l4-2 2 4t2 5z m-1-32q-1-2-1-3t-1-2q2 0 5-1h3 1v0 1l-4 2z m-21 88q-2 2-3 4t-2 5q-5-4-9-7l-10-8q2-1 4-3t4-3l7 6t9 6z m-6-21l6-4q3-3 6-4 1 1 2 4l2 4-2 4t-2 5q-3-3-6-5z m-18-14l10-8q4-3 9-7 1 3 2 5l2 4-8 6-7 6q-2-1-4-3t-4-3z m20-55q2 0 5-1h5q1 2 2 5 1 2 2 5l-4 2q-2 2-4 3-1-3-3-7-2-3-3-7z m24 51v0 0 0 0 0 0z m0 37v0 0 0 0 0 0z m2 16q-1 2-2 5l-2 4-4-2q-2-2-4-3 1-2 2-4l2-4q2 1 4 3z m-12 26q-1 3-2 5-1 3-2 5h-5q-3-1-5-1 2-4 3-7 2-3 3-7 2 1 4 3z m-9 22q-1 3-2 5-1 3-2 5h-6q-1-1-4-1 1-2 2-5t1-5q3 0 5 1h6z m-23-16l-24-6q-11-2-22-5 1-1 1-2 1 0 2-1l13-13q6-5 13-12 7 5 13 8l14 10q-3 5-5 10t-5 11z m-23-67q3-2 5-3l4-4q2 2 5 4 2 1 4 3-2 2-4 3-3 2-5 4l-4-4q-2-1-5-3z m-23-55q11-3 22-5l24-6q3 6 5 11t5 9q-7 5-14 9-6 5-13 10-8-7-15-15z m55-36q3 0 4-1h6q1 2 2 4 1 2 2 5h-6q-2 1-5 1 0-2-1-5t-2-4z m45-45q0 4 0 10t-1 11q-7 1-14 1-6 1-13 2-3-10-6-19-2-9-4-17 9 2 19 5t19 7z m-42-30q0-4 0-7 0-2-1-5 11 3 23 7 12 4 23 9 0 3-1 6v5q-11-4-22-8t-22-7z m39 70v5 4q-4 1-8 1-3 1-7 1-1-2-2-5-1-1-2-4 5 0 10-1 5 0 9-1z m-1 170h-4q-3-1-5-1 1-1 1-2t1-3q2 1 3 3l4 2v1 0z m1 13v5q0 2 1 5-5-1-10-1-5-1-10-1 1-3 2-5 1-3 2-5 4 0 7 1 4 0 8 1z m2 29q0 4 1 10t0 11q-9 4-19 7t-19 5q0-2 1-5 1-2 1-5 2-6 4-13l4-13q7 1 13 1z m3 36v5q1 3 1 5-11 5-23 9-12 5-22 8v-6q0-3 0-7 11-3 22-6t22-8z m4 30q2 12 4 22 2 12 4 22-9 6-16 8-8 3-15 3-3 0-6-1-3 0-6-2-7-4-11-12-2-8-3-21 11-3 24-8t25-11z m-127-103q2-3 4-4 2-3 5-6 12 3 26 6 12 2 26 4-1 3-2 5-1 3-2 5l-29-4q-15-3-28-6z m-9-34q9-8 18-16 10-8 21-17l4 4t4 3q-9 8-17 16-9 7-17 15-4-1-7-2-2-2-6-3z m0-90q4-1 6-3 3-1 7-1 8 7 17 15 8 8 17 16-1 1-4 3l-4 4q-11-9-21-17-10-9-18-17z m9-34q13-3 28-6l29-4q1 2 2 5 1 2 3 5-15 2-27 5-14 3-26 6-3-3-5-6-2-2-4-5z m78-122q1-12 3-20 4-8 11-12 3-2 6-2 3-1 6-1 7 0 15 3 7 2 16 8-2 10-4 21-2 11-4 23-12-6-25-11t-24-9z m61 332q-1-4-1-8 0-3-1-6h5 5v5q1 2 1 5-2 1-5 2z m11 10q0 3 1 5 0 3 1 6-3 1-5 2-3 1-5 2 0-3-1-6v-5l4-2q3-1 5-2z m-14-43q-1-2-1-5v-5h4q2 1 5 1v0 0 5q1 2 1 5-2 0-5-1h-4z m155 38q0 2-1 5v5q-4-2-8-4t-9-4q2-2 3-4t3-4q3 1 6 3 3 1 6 3z m-5-18v0q1 0 1 0h3 4v2q0 1-1 2l-4-2z m1 46q-2 9-4 16-2 8-4 15l-13-13t-14-15q3-4 5-7 3-3 5-6 6 3 13 6 6 2 12 4z m-30-34l-4-2t-5-2l2-2t1-2q2-1 3-1l2-2q2 1 3 2 2 1 3 1-1 2-3 4z m17 81l-2 6t-3 5q-7-8-15-17t-15-18q1-2 3-4 2-3 3-5 7 9 14 18 8 7 15 15z m-33-58l-3-3q-1-2-3-4l2-2t1-2q2 1 5 2l3 2q-1 2-2 4t-3 3z m19 90q-8 12-15 20-9 7-18 7t-18-7q-7-8-15-20 8-10 16-20 8-10 17-21 8 11 17 21 7 10 16 20z m-33-72q-2-2-3-4-2-2-3-4l3-3q1-1 3-3 1 2 3 3 1 2 3 3-2 2-3 4-2 2-3 4z m-43 51q-1-2-2-5l-2-6q7-8 15-15 7-9 14-18 1 2 3 5 1 2 3 4-8 10-15 18t-16 17z m29-69l-3-3q-2-2-3-4l4-2 4-2 2 2 2 2q-2 2-3 4z m-38 42q-2-7-4-15-2-7-4-16 6-2 12-4l12-6q3 3 5 6 3 3 5 7-6 8-13 15z m22-65q-1-2-3-4l-2-4q1 0 2-1 2-1 3-2 2 1 3 2 1 0 2 1l2 2t0 2l-3 2z m-34 16q0-2-1-5v-5q3-2 6-3 4-2 7-3 2 2 3 4t3 4q-5 2-9 4t-9 4z m-3-24v-2-2h3 4v0h1l-4 2q-2 1-4 2z m157-5q-1 3-1 6 0 4-1 8-2-1-5-2l-4-2v-5q1-3 1-5h5 5z m-8-18v-5q1-2 1-5v0 0h5q2-1 4-1v5q0 3-1 5h-4q-3 1-5 1z m4 46v5q-1 3-1 6-3-1-5-2t-5-2q1-3 1-6 0-2 1-5 2 1 5 2z m74 9q-2-11-6-21-3-11-7-21 3 0 5-1h6q4 11 8 22 4 12 8 23-3 0-7-1-3-1-7-1z m19 21q0 1 1 2v2q1 3 2 5 0 3 1 6l-8-2q-3-1-7-3-1-3-2-7 0-3-1-7 4 1 7 2 4 1 7 2z m24-122l1 1q1 1 2 1-11 4-22 6-12 3-25 6-2-6-4-11-3-5-5-10l14-10q6-3 13-8 7 7 13 12z m-29-46q-3-2-5-4-2-1-4-3 2-2 4-3 2-2 5-4l4 4q2 1 4 3-2 2-4 3z m-38 49q1 4 3 7 1 3 3 7-3 0-5 1h-5q-1-2-2-5-1-2-2-5l4-2q2-2 4-3z m-4-47q-1-3-2-5l-2-4 2-4q1-3 2-4 3 1 6 4l6 4-6 4t-6 5z m-12 35l-2-4q-1-3-2-5l4-1q2-2 4-3 1 2 2 4l2 4q-2 1-4 3z m-2-62v0 0 0 0 0 0z m0 37v0 0 0 0 0 0z m1 54q-2 0-5 1h-3-1v-1 0q2-1 3-2 2-2 4-3 0 2 1 3 0 1 1 2z m-3-108q1-3 2-5l2-4 4 2q2 2 4 3l-2 4q-1 3-2 5-2-1-4-3z m12-25q1-3 2-5 1-3 2-5h5q2 1 5 1-2 4-3 7-2 3-3 7-2-1-4-3z m15 31q4 4 9 7l10 8q-2 1-4 3t-4 3l-8-6q-4-3-8-6 1-2 3-4 1-2 2-5z m19 44l-10 8q-5 3-9 7-1-2-2-5-2-2-3-4 4-3 8-6l8-6q2 1 4 3t4 3z m-11 77q-3 0-6 1h-4q-1-2-2-5-1-2-2-5h5q2-1 4-1 2 2 3 5 1 2 2 5z m-46 45q0-5 1-11 0-6 1-10 7-1 13-2 7 0 14-1l4 13t4 13q0 3 1 5 1 3 1 5-9-2-19-5t-20-7z m42 29q0 4 1 7v6q-10-3-22-8-12-4-24-9v-5q1-2 1-5 12 4 23 8t21 6z m-39-69q0-3 1-5v-5q4-1 7-1 4-1 8-1 1 2 2 5 1 2 1 5-4 0-9 1-5 0-10 1z m2-170h4q2 1 5 1-1 1-1 2-1 1-1 3-2-2-4-3-1-1-3-2v-1 0z m-1-14v-4q-1-2-1-5 5 1 10 1 5 1 9 1 0 3-1 4-1 3-2 5-4 0-8-1-3 0-7-1z m-2-28q-1-5-1-11-1-6-1-10 10-4 20-7t19-5q-2 8-4 17-3 9-6 19l-14-2q-6 0-13-1z m-4-36q0-3-1-5v-6q12-5 24-9t22-7v5q-1 3-1 7-10 3-21 7t-23 8z m48 60q-1 1-2 4-2 3-3 5-2 0-4-1h-5q1-3 2-5 1-2 2-4h4q3 1 6 1z m8 25q13 3 25 6 11 2 22 6-7 5-14 12-7 8-15 15-7-5-13-10-7-4-14-9 2-4 5-9 2-5 4-11z m29 85q2-2 5-3l4-4q11 9 21 17 9 8 18 16-4 1-7 2-2 2-6 3-8-8-17-15z m39 60l-28 6-29 4q-1-2-2-5-2-2-3-5 15-2 27-4 14-3 26-6 2 3 5 5z m-78 122q-1 13-5 21-2 8-9 12-3 2-6 2-3 1-6 1-7 0-15-3-7-2-16-8 2-10 4-22 2-10 4-22 12 6 25 11 12 5 24 8z m-57-426q9-6 16-8 8-3 15-3 3 0 6 1 3 0 6 2 7 4 9 12 4 8 5 20-11 4-24 9t-25 11q-2-12-4-23-2-11-4-21z m135 146q-2 3-4 5-3 3-5 6-12-3-26-6-12-3-27-5 1-3 3-5 1-3 2-5l29 4q15 3 28 6z m9 34q-9 8-18 17-10 8-21 17l-4-4q-3-2-5-3l18-16t17-15q4 0 6 1 3 2 7 3z m26 116l-8 2q-3 1-8 2-2-3-5-5-2-3-5-6 4-1 7-3l8-2 6 6q2 3 5 6z m-67 88l-8-26q-4-12-10-25 16-2 32-5 16-2 30-5 9 14 11 25 1 4 1 7 0 8-4 13-4 8-15 12t-26 4h-5-6z m-111 104l2-8t1-8q15 11 28 17 14 7 25 7 4 0 7-1 3-1 7-3 10-6 14-21 5-14 3-37l8 2q5 2 8 3 3 20 3 34 0 12-2 22-3 21-16 29-3 2-7 2-4 1-8 1-13 0-33-10-19-10-40-29z m-10-49q-2-2-5-4t-5-4l4-17t4-19q2 1 5 3 2 1 5 2l-4 20q-2 10-4 19z m-8 33l-6-5q-1-3-4-5 1-4 2-7t2-7l4 5q3 3 6 5l-2 8q-1 2-2 6z m-125 24q3-3 6-7 2-3 6-6 10 24 22 37 11 13 25 13 13 0 25-13 12-13 22-37l6 6q3 4 6 7-12 34-28 55-14 19-31 19t-32-19q-15-21-27-55z m-11-38q3-2 5-4l5-6q1 4 2 7t2 7q-3 2-6 5-2 2-4 5-1-4-2-6z m-12-58q3-1 5-2 3-2 5-3 2 10 4 19l3 17q-2 2-4 4-3 2-5 4-2-9-4-19z m-106 39q4-1 8-3 5-1 9-2-2 23 3 37 4 15 14 21 3 2 6 3t8 1q11 0 24-7 13-6 28-17l2 8 2 8q-22 19-40 29-20 10-33 10-5 0-8-1-4 0-8-2-13-8-17-29 0-10 0-22 0-14 2-34z m-18-55q-17 0-26-4-11-4-16-12-3-5-3-13 0-3 1-7 2-11 11-25 14 3 30 5 16 3 31 5-5 13-10 25-3 13-8 26h-5-5z m-73-70q5 1 8 2 5 1 9 2-16 23-22 41-5 18 2 29 5 9 16 14 13 5 32 5 7 0 15-1t17-2q-1 4-3 9l-2 8q-16 3-30 5t-27 1q-20 0-34-4t-18-15q-4-7-4-16 0-9 5-23 9-25 36-55z m-7-151q3 3 7 6 3 3 6 7-26 10-40 23t-13 26 13 27q15 12 40 23-3 4-6 7-4 3-7 6-37-13-59-28-20-17-20-35t20-34q22-15 59-28z m84-116q-9-2-17-2-8-1-15-1-19 0-32 5-11 4-16 13-8 12-2 31 6 17 22 40-4 1-9 2-3 0-8 1-26-29-36-53-5-14-5-25 0-8 4-15 5-10 18-15 14-5 34-5 12 0 27 2t30 5l2 8q2 5 3 9z m6 20q5 12 8 25 5 12 10 26-15 2-31 5-16 2-30 5-9-14-11-26-1-4-1-7 0-6 3-12 5-8 16-12 9-4 26-4h5 5z m112-104l-2 7-2 8q-15-10-28-17-13-6-24-6-4 0-8 1t-6 3q-10 6-14 20-5 16-3 37-4-1-9-2-4-2-8-3-2-19-2-34 0-11 0-21 4-22 17-30 4-1 7-1 4-1 9-1 13 0 33 9 18 11 40 30z m10 48q2 2 5 4 2 2 4 4l-3 18t-4 18q-2-1-5-3-3-1-5-1l4-20q2-11 4-20z m8-33q2 3 4 6 3 3 6 5-1 4-2 7t-2 7l-5-6q-2-2-5-4l2-8q1-3 2-7z m125-23q-3 3-6 7l-6 6q-10-24-22-38-12-12-25-12-14 0-25 12-12 14-22 38l-6-6q-3-4-6-7 12-34 27-55 15-19 32-19t31 19q16 21 28 55z m11 38l-6 4q-2 3-4 5l-2-6t-2-7l4-5 6-6q1 4 2 7z m12 58q-3 0-5 1-3 2-5 3-2-9-4-18l-4-18q2-2 5-4t5-4q2 9 4 20z m105-40q-3 1-8 3l-8 2q1-21-3-37-4-14-14-20-4-2-7-3-3-1-7-1-11 0-25 6-13 7-27 17l-2-8-2-7q21-19 40-30 20-9 33-9 4 0 8 1 4 0 7 1 13 8 16 30 2 10 2 21 0 15-3 34z m19 56q16 0 26 4t15 12q4 6 4 12 0 3-1 7-2 12-11 26-14-3-30-5-16-3-32-5 6-14 10-26 4-12 8-25h6 4 1z m73 69q-5-1-9-1-4-1-8-2 16-23 22-41 5-18-2-30-5-9-17-13-12-5-31-5-7 0-15 1-8 0-17 2 1-4 2-9 2-4 3-8 16-3 30-5t27-2q20 0 34 5 12 5 18 15 4 7 4 15 0 11-5 25-10 24-36 53z m86 89q0 18-20 35-22 15-59 28-3-3-7-6l-7-7q26-11 40-23 14-13 14-27t-14-26q-14-13-40-24 4-3 7-6t7-6q37 13 58 28 21 17 21 34z" horiz-adv-x="870" />

<glyph glyph-name="30_ryuu" unicode="&#xe81d;" d="M329 686l-5 0c-6-1-42-14-71-26-38-16-81-41-98-56-6-6-6-6-3-6 16 3 30 5 52 4 15 0 45 1 67 1l41 2 5 13c6 18 11 42 11 56z m80-79c-54 0-100-6-156-20-30-7-38-8-20-2 5 2 9 4 8 5 0 1-8 3-16 5-42 12-92 0-127-30-24-22-41-56-45-91-1-6-2-12-3-14-2-2-10-6-19-10-32-13-38-28-24-55 11-20 32-39 59-52 27-13 56-19 97-20 32-2 31-1 28-19-5-23-6-29-9-31-7-3-34-7-50-6-13 1-17 1-29 7-12 5-14 5-20 4-3-1-7-3-9-5-4-4-2-14 3-18l4-3-6-4c-9-4-11-8-11-17 0-14 7-18 12-8 1 4 3 6 5 6 4 0 5-3 2-4-2-2-2-10 1-12 3-3 11-2 16 2 6 5 8 5 26-1 33-10 44-11 54-8 8 2 10 1 10-3 0-4 6-22 12-39 3-6 4-11 4-12-1 0-7 12-9 18-1 5-8 7-17 4-15-4-25-19-25-39 0-11 1-14 6-26 3-7 7-14 7-15 0-1-2-3-6-4-6-2-8-2-17 1-16 4-24 3-32-2-10-8-18-27-11-32 5-4 7-3 7 4 0 10 7 23 14 25 6 2 7 0 2-6-2-2-6-7-7-11-8-14-4-17 23-17h19l6 8c11 12 21 15 44 12 8-1 10-1 13 1 2 2 3 4 3 5 0 1 1 3 3 4 4 4 2-5-2-10-4-3-6-3-23-4-21-1-26-3-33-15-5-8-8-22-7-26 1-2 3-2 7-2 5 1 5 1 7 10 2 11 8 22 14 24 5 2 5 0 1-5-4-6-10-18-10-21 0-1 2-3 4-5 3-3 5-3 35-3 31 0 33 0 41 4 8 3 13 8 20 17 3 5 5 5 44 6 4 0 16-2 27-4 20-5 22-5 63-5h41l20 5c58 16 102 53 121 102 7 19 7 31-1 31-1 0-9-5-17-10-47-29-88-37-136-28-23 5-42 12-61 23-10 5-10 5-23 30-7 14-17 30-21 36-3 5-5 7-7 9 0 0 0 0 1 0 38-3 83-23 98-53 1-4 3-7 4-8 3-5 9-1 12 7 2 6 13 24 20 33 19 22 41 32 69 32 20 0 41-8 60-16 22-8 25-4 13 20-19 38-26 65-26 99 0 33 7 56 21 76 3 4 6 7 7 9 1 1 4 2 4 2 3 0 9 8 9 12 0 8-4 11-12 11-22-1-77-26-121-54-27-17-41-28-72-58-26-25-32-29-38-31-17-4-41-12-59-18-10-4-19-7-20-7-6 2-21 37-21 46 0 1 4 5 9 7 12 8 28 22 35 34 7 9 8 10 15 11 31 4 61 14 65 23 5 8 1 11-28 30-15 9-27 17-27 18 0 1 9 10 19 20 11 10 25 26 32 34 27 33 51 72 50 81 0 5-3 6-43 6z m-270-96c2 1 5 1 8 0 15-1 28-13 37-34 3-7 3-12 3-27 0-18 0-19-5-29-6-11-13-18-23-22-14-4-31 0-43 11-9 8-15 24-16 37-2 23 5 42 19 54 6 7 12 10 20 10z m3-23c-6 0-12-8-11-21 1-6 2-9 5-11 4-4 9-4 13 0 5 5 5 22 0 28-2 2-5 4-7 4z m-108-72c4 0 4-1-1-7-5-6-9-7-9-3 0 4 7 10 10 10z m64-28c2 0 3-2 3-6 0-6-4-12-11-14-7-4-12-3-20 1-7 4-12 11-5 9 15-5 16-5 22-3 5 2 6 4 7 8 1 3 3 5 4 5z m152-201l-5-2c-9-5-22-19-27-29-4-8-4-11-4-25 0-15 0-16 7-28 3-7 6-13 6-13-2 0-11 13-15 20-4 8-5 11-5 24 0 16 4 27 13 38 7 9 14 14 23 15z m30 0c3 0 13-4 14-6 2-3 0-2-9 2-4 2-6 4-5 4z" horiz-adv-x="690" />
</font>
</defs>
</svg>
