<?xml version="1.0" encoding="UTF-8" standalone="no"?>
<svg
   xmlns:dc="http://purl.org/dc/elements/1.1/"
   xmlns:cc="http://creativecommons.org/ns#"
   xmlns:rdf="http://www.w3.org/1999/02/22-rdf-syntax-ns#"
   xmlns:svg="http://www.w3.org/2000/svg"
   xmlns="http://www.w3.org/2000/svg"
   version="1.0"
   width="50"
   height="50"
   viewBox="0 0 40 40"
   preserveAspectRatio="xMidYMid meet"
   id="svg2">
  <path
     style="opacity:0.5;fill:#b3b3b3"
     d="m 19.976563,6.4000373 c -0.55405,-6.044e-4 -1.068961,0.00609 -1.326562,0.023437 -1.555611,0.1031512 -3.351332,1.0256564 -4.45625,2.2812471 -0.490672,0.5584368 -0.956723,1.2476353 -1.109375,1.6531246 -0.268963,0.693598 -0.367188,2.119908 -0.367188,5.249994 l 0,1.914059 -0.181251,0 c -0.425248,0 -0.490082,0.131148 -0.482813,0.98125 0.0109,1.09553 0.119732,2.198802 0.268752,2.671872 0.0836,0.2561 0.163477,0.426472 0.479686,1.006248 0.225345,0.41616 0.312329,0.697088 0.425001,1.351562 0.225346,1.351627 0.262337,1.418579 1.389062,2.745309 l 0.1375,0.160937 -0.03593,1.134374 c -0.03635,1.148884 -0.07738,1.551407 -0.171874,1.732811 -0.05452,0.106707 -0.184642,0.177031 -0.439063,0.2375 -0.08723,0.02133 -0.221601,0.09605 -0.301563,0.167186 -0.239884,0.213416 -0.377778,0.547676 -0.603125,1.454686 -0.109037,0.448173 -0.236582,0.925341 -0.276562,1.064061 l -0.07969,0.245314 -0.254688,0.128124 c -0.138114,0.06758 -0.516092,0.220554 -0.835937,0.334374 -0.319845,0.11738 -0.981202,0.36617 -1.471875,0.554688 -0.4906712,0.192071 -1.0469377,0.394216 -1.2359368,0.454687 -0.4652297,0.145833 -1.7552148,0.726101 -3.7796878,1.70781 C 3.6534303,36.437213 2.5157527,37.060482 1.7125058,37.60469 1.07281,38.038632 0.51655145,38.670996 0.14218751,39.385938 0.10122972,39.46436 0.04965631,39.58765 0,39.695313 L 0,40 l 40,0 0,-0.228125 c -0.150466,-0.324808 -0.31187,-0.67107 -0.426562,-0.904687 -0.283499,-0.576219 -0.294252,-0.594371 -0.625,-0.910936 C 38.37417,37.404931 37.42498,36.768905 36.9125,36.587504 36.788925,36.541254 36.411967,36.362925 36.070313,36.192191 35.387007,35.84717 35.004813,35.690172 34.034376,35.35938 33.198419,35.074825 32.715226,34.882373 32.417187,34.718756 31.719343,34.327495 29.85478,33.477741 28.873438,33.10782 28.615382,33.00823 28.263014,32.869153 28.092188,32.80157 27.921363,32.734 27.69185,32.666929 27.582813,32.656258 c -0.461595,-0.0498 -0.650746,-0.192047 -0.723438,-0.540625 -0.02544,-0.128049 -0.10448,-0.316768 -0.20625,-0.487499 -0.236248,-0.394818 -0.273503,-0.51885 -0.295312,-0.981249 -0.0072,-0.224085 -0.03288,-0.462969 -0.05469,-0.523436 -0.0436,-0.142277 -0.283178,-0.351741 -0.570312,-0.504687 -0.192635,-0.09959 -0.224592,-0.130894 -0.260937,-0.262501 -0.02544,-0.09959 -0.03591,-0.584244 -0.02501,-1.537497 0.0072,-1.166669 0.01682,-1.4016 0.06406,-1.465624 0.02908,-0.03913 0.12004,-0.159348 0.200001,-0.2625 0.08361,-0.106707 0.225813,-0.320059 0.320311,-0.476562 0.356192,-0.604676 0.461949,-0.903222 0.789064,-2.240622 0.163558,-0.668699 0.265447,-0.911699 0.545311,-1.317186 0.258056,-0.377034 0.34864,-0.585897 0.414063,-0.959374 0.196269,-1.145326 0.315764,-3.243759 0.192188,-3.410934 -0.03271,-0.04625 -0.120443,-0.06858 -0.331251,-0.08281 l -0.282812,-0.02031 0.02187,-0.537499 c 0.04725,-1.173783 0.102544,-4.620509 0.08438,-5.107807 -0.0327,-0.704261 -0.128147,-1.059892 -0.473434,-1.78906 C 26.779818,9.7074082 26.598951,9.4435439 26.428124,9.3297208 26.257298,9.2194576 26.026957,9.0202218 25.143751,8.2234728 24.013389,7.2026378 23.628104,6.9391236 23.115625,6.8359743 22.973875,6.8075151 22.705678,6.7200448 22.520313,6.6453494 22.338583,6.5670951 22.120585,6.4843106 22.040624,6.4594123 21.929315,6.423847 20.899974,6.4010384 19.976563,6.4000373 Z"
     id="rect4147" />
</svg>
